# xmcd CD database file
#
# Track frame offsets:
#	150
#	32560
#	51410
#	80650
#	103893
#	126260
#	145398
#	160238
#	190525
#	204885
#
# Disc length: 3047 seconds
#
# Revision: 0
# Processed by: cddbd v1.4PL0 Copyright (c) Steve Scherf et al.
# Submitted via: CDex 1.50beta10
#
DISCID=890be50a
DTITLE=Steve Ripley - Ripley
DYEAR=2002
DGENRE=Country
TTITLE0=Gone Away
TTITLE1=Night Time Lover
TTITLE2=Too Many Borderlines
TTITLE3=Mr. Jingle Jangle
TTITLE4=Sweetheart Town
TTITLE5=Oklahoma Blues
TTITLE6=Down, Down (I don't believe you)
TTITLE7=The Round and Round
TTITLE8=No Depression In Heaven
TTITLE9=Crossing Over
EXTD=YEAR: 2002
EXTT0=
EXTT1=
EXTT2=
EXTT3=
EXTT4=
EXTT5=
EXTT6=
EXTT7=
EXTT8=
EXTT9=
PLAYORDER=
